# xmcd
#
# Track frame offsets:
#	150
#	11475
#	23800
#	38637
#	50062
#	62750
#	73987
#	88587
#	103700
#	117150
#	129850
#	143225
#	158412
#
# Disc length: 2311 seconds
#
# Revision: 1
# Processed by: cddbd v1.5.1PL0 Copyright (c) Steve Scherf et al.
# Submitted via: audiograbber 1.82.02
#
DISCID=a809050d
DTITLE=George Dobbie - Gospel Country Yodels
DYEAR=1900
DGENRE=Country
TTITLE0=Big Mike
TTITLE1=I Yodel For Jesus
TTITLE2=His Name Is Jesus
TTITLE3=Daddy and Mum
TTITLE4=A City Set On A Hill
TTITLE5=Little Bit Of Lovin
TTITLE6=Come Back To Jesus
TTITLE7=One Day At A Time
TTITLE8=Sing A Country Song
TTITLE9=I Just Can't Understand
TTITLE10=Glory Bound Train
TTITLE11=Yodelling Up In Heaven
TTITLE12=Amy
EXTD=
EXTT0=
EXTT1=
EXTT2=
EXTT3=
EXTT4=
EXTT5=
EXTT6=
EXTT7=
EXTT8=
EXTT9=
EXTT10=
EXTT11=
EXTT12=
PLAYORDER=
